<svg id="Wort-_Bildmarke" data-name="Wort-/Bildmarke" xmlns="http://www.w3.org/2000/svg" viewBox="0 0 191.34 45.35"><defs><style>.cls-1{fill:#fff;}</style></defs><title>NUE_Logo_Standard_weiss_RGB</title><path class="cls-1" d="M168.92,8.67h8.28a.38.38,0,0,1,.38.38v2.18a.38.38,0,0,1-.38.38h-5.54v2.48h4.56a.38.38,0,0,1,.38.38v2.18a.38.38,0,0,1-.38.38h-4.56v2.7h5.54a.38.38,0,0,1,.38.38v2.18a.38.38,0,0,1-.38.38h-8.28a.38.38,0,0,1-.38-.38V9.05A.38.38,0,0,1,168.92,8.67Z"/><path class="cls-1" d="M160.43,8.49a7.73,7.73,0,0,1,4.88,1.88.35.35,0,0,1,0,.54l-1.58,1.68a.42.42,0,0,1-.54,0,3.68,3.68,0,0,0-2.62-1,4,4,0,1,0,.3,8,4.58,4.58,0,0,0,1.5-.31V17.19h-1.26a.36.36,0,0,1-.38-.36V15a.38.38,0,0,1,.38-.38h4a.38.38,0,0,1,.38.38v6.2a.34.34,0,0,1-.16.32,10.11,10.11,0,0,1-5,1.3,7.18,7.18,0,1,1,0-14.37Z"/><g id="VERSICHERUNG"><path class="cls-1" d="M118.49,29.25a.23.23,0,0,1,.23-.23h3.43a2.6,2.6,0,0,1,2.62,2.58A2.65,2.65,0,0,1,123,34l1.64,3a.23.23,0,0,1-.2.35h-1.26a.21.21,0,0,1-.19-.11l-1.6-3.18H120v3.06a.23.23,0,0,1-.23.23h-1.1a.23.23,0,0,1-.23-.23Zm3.53,3.6a1.24,1.24,0,0,0,1-1.94,1.06,1.06,0,0,0-.81-.45h-2.12v2.39Z"/><path class="cls-1" d="M111.25,29h4.88a.23.23,0,0,1,.23.23v1a.23.23,0,0,1-.23.23h-3.55v2h3a.23.23,0,0,1,.23.23v1a.23.23,0,0,1-.23.23h-3V36h3.55a.23.23,0,0,1,.23.23v1a.23.23,0,0,1-.23.23h-4.88a.23.23,0,0,1-.23-.23V29.25A.23.23,0,0,1,111.25,29Z"/><path class="cls-1" d="M101.7,29.25a.24.24,0,0,1,.23-.23H103a.23.23,0,0,1,.23.23v3.18H107V29.25a.23.23,0,0,1,.23-.23h1.1a.24.24,0,0,1,.23.23v7.94a.24.24,0,0,1-.23.23h-1.1a.23.23,0,0,1-.23-.23V33.88h-3.78v3.31a.23.23,0,0,1-.23.23h-1.12a.24.24,0,0,1-.23-.23Z"/><path class="cls-1" d="M96.92,28.9A4.06,4.06,0,0,1,99.82,30a.22.22,0,0,1,0,.34l-.73.76a.19.19,0,0,1-.3,0A2.84,2.84,0,0,0,97,30.4,2.79,2.79,0,0,0,97,36a2.88,2.88,0,0,0,1.84-.68.22.22,0,0,1,.3,0l.74.77a.23.23,0,0,1,0,.32,4.12,4.12,0,0,1-2.92,1.16,4.32,4.32,0,1,1,0-8.64Z"/><path class="cls-1" d="M89.19,29.25a.23.23,0,0,1,.23-.23h1.12a.23.23,0,0,1,.23.23v7.94a.23.23,0,0,1-.23.23H89.42a.23.23,0,0,1-.23-.23Z"/><path class="cls-1" d="M81.83,36.6c-.12-.1-.17-.17-.06-.36l.43-.74a.28.28,0,0,1,.41-.08,2.9,2.9,0,0,0,1.81.74,1,1,0,0,0,1.09-.92c0-.61-.52-1-1.52-1.44s-2.26-1.18-2.26-2.59a2.4,2.4,0,0,1,2.7-2.3,4.22,4.22,0,0,1,2.4.8.3.3,0,0,1,.07.4l-.46.68a.32.32,0,0,1-.42.14,3.09,3.09,0,0,0-1.67-.66c-.68,0-1.06.38-1.06.84s.44.95,1.42,1.34c1.16.47,2.51,1.16,2.51,2.71a2.53,2.53,0,0,1-2.76,2.38A3.76,3.76,0,0,1,81.83,36.6Z"/><path class="cls-1" d="M73.74,29.25A.23.23,0,0,1,74,29H77.4A2.6,2.6,0,0,1,80,31.6,2.65,2.65,0,0,1,78.24,34l1.64,3a.23.23,0,0,1-.2.35H78.42a.21.21,0,0,1-.19-.11l-1.6-3.18H75.3v3.06a.23.23,0,0,1-.23.23H74a.23.23,0,0,1-.23-.23Zm3.53,3.6a1.24,1.24,0,0,0,1-1.94,1.06,1.06,0,0,0-.81-.45H75.31v2.39Z"/><path class="cls-1" d="M66.48,29h4.88a.23.23,0,0,1,.23.23v1a.23.23,0,0,1-.23.23H67.81v2h3a.23.23,0,0,1,.23.23v1a.23.23,0,0,1-.23.23h-3V36h3.55a.23.23,0,0,1,.23.23v1a.23.23,0,0,1-.23.23H66.48a.23.23,0,0,1-.23-.23V29.25A.23.23,0,0,1,66.48,29Z"/><path class="cls-1" d="M56.62,29.33a.21.21,0,0,1,.2-.31h1.22a.22.22,0,0,1,.2.13l2.32,5.16h.06l2.32-5.16a.22.22,0,0,1,.2-.13h1.22a.21.21,0,0,1,.2.31l-3.72,8.08a.22.22,0,0,1-.2.13h-.12a.22.22,0,0,1-.2-.13Z"/></g><g id="NÜRNBERGER"><path class="cls-1" d="M180.52,9.05a.38.38,0,0,1,.38-.38h6a4.27,4.27,0,0,1,1.4,8.34L191,22.09a.38.38,0,0,1-.34.58H188a.37.37,0,0,1-.32-.18L185,17.19h-1.38v5.1a.38.38,0,0,1-.38.38H180.9a.38.38,0,0,1-.38-.38Zm6.1,5.6a1.54,1.54,0,0,0,1.52-1.6,1.47,1.47,0,0,0-1.52-1.52h-3v3.12Z"/><path class="cls-1" d="M140.79,9.05a.38.38,0,0,1,.38-.38h6a4.27,4.27,0,0,1,1.4,8.34l2.74,5.08a.38.38,0,0,1-.34.58h-2.66a.37.37,0,0,1-.32-.18l-2.66-5.3h-1.38v5.1a.38.38,0,0,1-.38.38h-2.38a.38.38,0,0,1-.38-.38Zm6.1,5.6a1.54,1.54,0,0,0,1.52-1.6,1.47,1.47,0,0,0-1.52-1.52h-3v3.12Z"/><path class="cls-1" d="M129.21,8.67h8.28a.38.38,0,0,1,.38.38v2.18a.38.38,0,0,1-.38.38h-5.54v2.48h4.56a.38.38,0,0,1,.38.38v2.18a.38.38,0,0,1-.38.38h-4.56v2.7h5.54a.38.38,0,0,1,.38.38v2.18a.38.38,0,0,1-.38.38h-8.28a.38.38,0,0,1-.38-.38V9.05A.38.38,0,0,1,129.21,8.67Z"/><path class="cls-1" d="M123.39,15.55A3.4,3.4,0,0,1,126,18.81c0,2.36-2,3.86-4.36,3.86h-5a.38.38,0,0,1-.38-.38V9.05a.38.38,0,0,1,.38-.38h4.66c2.36,0,4.3,1.62,4.3,3.72a3.44,3.44,0,0,1-2.28,3.14Zm-2.28-1.2a1.35,1.35,0,0,0,1.3-1.44,1.28,1.28,0,0,0-1.3-1.36h-1.66v2.8Zm0,5.46c1,0,1.56-.5,1.56-1.44A1.38,1.38,0,0,0,121.19,17h-1.74v2.86Z"/><path class="cls-1" d="M101.27,8.47h.25a.57.57,0,0,1,.39.16l7.82,7.52h0V9.05a.38.38,0,0,1,.38-.38h2.4a.38.38,0,0,1,.38.38V22.49a.38.38,0,0,1-.38.38h-.25a.57.57,0,0,1-.4-.17l-7.83-7.87h0v7.44a.4.4,0,0,1-.4.4h-2.36a.4.4,0,0,1-.4-.4V8.87A.4.4,0,0,1,101.27,8.47Z"/><path class="cls-1" d="M87.18,9.05a.38.38,0,0,1,.38-.38h6A4.27,4.27,0,0,1,94.94,17l2.74,5.08a.38.38,0,0,1-.34.58H94.68a.37.37,0,0,1-.32-.18l-2.66-5.3H90.32v5.1a.38.38,0,0,1-.38.38H87.56a.38.38,0,0,1-.38-.38Zm6.1,5.6a1.54,1.54,0,0,0,1.52-1.6,1.47,1.47,0,0,0-1.52-1.52h-3v3.12Z"/><path class="cls-1" d="M57.09,8.47h.25a.57.57,0,0,1,.39.16l7.82,7.52h0V9.05a.38.38,0,0,1,.38-.38h2.4a.38.38,0,0,1,.38.38V22.49a.38.38,0,0,1-.38.38H68.1a.57.57,0,0,1-.4-.17l-7.83-7.87h0v7.44a.4.4,0,0,1-.4.4H57.09a.4.4,0,0,1-.4-.4V8.87A.4.4,0,0,1,57.09,8.47Z"/></g><rect class="cls-1" x="76.61" y="7.68" width="2.69" height="2.45" rx="0.36" ry="0.36"/><path class="cls-1" d="M83.43,8.68H81a.38.38,0,0,0-.38.38v8.2c0,1.46-.84,2.43-2.64,2.43s-2.64-1-2.64-2.43V9.06a.38.38,0,0,0-.38-.38H72.48a.38.38,0,0,0-.38.38v8.36c0,3,2.34,5.48,5.86,5.48s5.86-2.43,5.86-5.48V9.06A.38.38,0,0,0,83.43,8.68Z"/><path class="cls-1" d="M148.71,28.89A4.54,4.54,0,0,1,151.64,30a.23.23,0,0,1,0,.34l-.74.78a.21.21,0,0,1-.31,0,2.72,2.72,0,0,0-1.81-.7,2.77,2.77,0,0,0,0,5.54,3.76,3.76,0,0,0,1.43-.3V34.12h-1a.22.22,0,0,1-.23-.22v-.84a.23.23,0,0,1,.23-.23h2.29a.23.23,0,0,1,.23.23v3.48a.2.2,0,0,1-.1.19,6.07,6.07,0,0,1-3,.78,4.32,4.32,0,0,1,0-8.63Z"/><path class="cls-1" d="M135.82,28.89H136a.34.34,0,0,1,.25.11l4.88,5.2h0v-5a.23.23,0,0,1,.23-.23h1.1a.23.23,0,0,1,.23.23v8.07a.23.23,0,0,1-.23.23h-.15a.34.34,0,0,1-.25-.11l-4.9-5.4h0v5.16a.23.23,0,0,1-.23.23h-1.09a.23.23,0,0,1-.23-.23V29.12A.23.23,0,0,1,135.82,28.89Z"/><path class="cls-1" d="M133.16,29H132a.23.23,0,0,0-.23.23v5a1.79,1.79,0,0,1-3.59,0v-5A.23.23,0,0,0,128,29h-1.14a.24.24,0,0,0-.23.23v5a3.39,3.39,0,0,0,6.78,0v-5A.24.24,0,0,0,133.16,29Z"/><path class="cls-1" d="M23.67,19.28H11.48a.14.14,0,0,0-.14.14v.94a.28.28,0,0,0,0,.11l1.09,2.62a.28.28,0,0,1,0,.11v7.29a.14.14,0,0,0,.14.14h9.92a.14.14,0,0,0,.14-.14V23.19a.28.28,0,0,1,0-.11l1.09-2.62a.28.28,0,0,0,0-.11v-.94A.14.14,0,0,0,23.67,19.28Z"/><path class="cls-1" d="M35,26.32a.14.14,0,0,0-.12-.2H25.17a.14.14,0,0,0-.12.2l.43.87a.28.28,0,0,1,0,.13v4.81a.14.14,0,0,0,.05.11l3.55,2.84a.28.28,0,0,0,.18.06h5.14a.14.14,0,0,0,.14-.14V27.32a.28.28,0,0,1,0-.13Z"/><path class="cls-1" d="M22.68,0A22.68,22.68,0,1,0,45.35,22.68,22.68,22.68,0,0,0,22.68,0ZM36.77,37.42H28.45a.28.28,0,0,1-.18-.06l-5.51-4.41a.28.28,0,0,0-.18-.06H5a20.41,20.41,0,1,1,31.75,4.54Z"/><path class="cls-1" d="M20.69,10.58H14.46a.14.14,0,0,1-.11-.23L17.46,6.2a.14.14,0,0,1,.23,0l3.12,4.16A.14.14,0,0,1,20.69,10.58Z"/><path class="cls-1" d="M24.6,17.14H10.55a.14.14,0,0,1-.1-.24l4.25-4.25a.14.14,0,0,1,.1,0h5.55a.14.14,0,0,1,.1,0L24.7,16.9A.14.14,0,0,1,24.6,17.14Z"/><path class="cls-1" d="M34.14,21.69a.14.14,0,0,0-.26,0L33,23.78a.14.14,0,0,1-.26,0l-2.57-6.18a.14.14,0,0,0-.26,0l-2.57,6.18a.14.14,0,0,1-.26,0l-.87-2.09a.14.14,0,0,0-.26,0L25,23.9a.14.14,0,0,0,.13.2h9.78a.14.14,0,0,0,.13-.2Z"/></svg>